<svg height="512pt" viewBox="0 0 512 512" width="512pt" xmlns="http://www.w3.org/2000/svg"><path d="m32 33h448v433h-448zm0 0" fill="#ffe470"/><path d="m256 33h224v433h-224zm0 0" fill="#ffda2d"/><path d="m428.6875 487.3125c-3.839844 0-7.679688-1.460938-10.609375-4.390625l-398.886719-398.890625c-2.8125-2.8125-4.394531-6.628906-4.394531-10.605469 0-3.976562 1.582031-7.792969 4.394531-10.605469l42.425782-42.425781c5.855468-5.859375 15.355468-5.859375 21.210937 0l398.890625 398.886719c2.8125 2.816406 4.394531 6.628906 4.394531 10.609375 0 3.976563-1.582031 7.792969-4.394531 10.605469l-42.425781 42.425781c-2.929688 2.929687-6.769531 4.390625-10.605469 4.390625zm0 0" fill="#c99000"/><path d="m81.925781 487.3125c-3.839843 0-7.679687-1.464844-10.605469-4.390625l-42.425781-42.429687c-2.8125-2.8125-4.394531-6.625-4.394531-10.605469 0-3.976563 1.582031-7.792969 4.394531-10.605469l398.886719-398.886719c5.859375-5.859375 15.355469-5.859375 21.214844 0l42.425781 42.425781c5.855469 5.855469 5.855469 15.355469 0 21.210938l-398.890625 398.890625c-2.925781 2.929687-6.765625 4.390625-10.605469 4.390625zm0 0" fill="#c99000"/><path d="m75 507.5h-60c-8.285156 0-15-6.714844-15-15v-472.5c0-8.285156 6.714844-15 15-15h60c8.285156 0 15 6.714844 15 15v472.5c0 8.285156-6.714844 15-15 15zm0 0" fill="#e69f34"/><path d="m481.71875 419.28125-225.695312-225.695312v127.277343l162.054687 162.058594c2.929687 2.929687 6.769531 4.394531 10.605469 4.394531 3.839844 0 7.679687-1.464844 10.605468-4.394531l42.429688-42.425781c2.8125-2.8125 4.394531-6.628906 4.394531-10.605469 0-3.980469-1.582031-7.792969-4.394531-10.609375zm0 0" fill="#bb7c14"/><path d="m491.421875 62.820312-42.425781-42.425781c-5.859375-5.859375-15.355469-5.859375-21.214844 0l-171.757812 171.757813v127.277344l235.398437-235.398438c5.855469-5.855469 5.855469-15.355469 0-21.210938zm0 0" fill="#bb7c14"/><path d="m497 507.5h-60c-8.285156 0-15-6.714844-15-15v-472.5c0-8.285156 6.714844-15 15-15h60c8.285156 0 15 6.714844 15 15v472.5c0 8.285156-6.714844 15-15 15zm0 0" fill="#c99000"/><path d="m497 90h-482c-8.285156 0-15-6.714844-15-15v-60c0-8.285156 6.714844-15 15-15h482c8.285156 0 15 6.714844 15 15v60c0 8.285156-6.714844 15-15 15zm0 0" fill="#fdbf00"/><path d="m497 512h-482c-8.285156 0-15-6.714844-15-15v-60c0-8.285156 6.714844-15 15-15h482c8.285156 0 15 6.714844 15 15v60c0 8.285156-6.714844 15-15 15zm0 0" fill="#fdbf00"/><g fill="#e69f34"><path d="m497 0h-241v90h241c8.285156 0 15-6.714844 15-15v-60c0-8.285156-6.714844-15-15-15zm0 0"/><path d="m497 422h-241v90h241c8.285156 0 15-6.714844 15-15v-60c0-8.285156-6.714844-15-15-15zm0 0"/></g></svg>